<svg width="60" height="60" viewBox="0 0 60 60" fill="none" xmlns="http://www.w3.org/2000/svg">
<path d="M35.5 23C35.8978 23 36.2794 23.158 36.5607 23.4393C36.842 23.7206 37 24.1022 37 24.5C37 24.8978 36.842 25.2794 36.5607 25.5607C36.2794 25.842 35.8978 26 35.5 26C35.1022 26 34.7206 25.842 34.4393 25.5607C34.158 25.2794 34 24.8978 34 24.5C34 24.1022 34.158 23.7206 34.4393 23.4393C34.7206 23.158 35.1022 23 35.5 23Z" stroke="#555555" stroke-width="1.7" stroke-linecap="round" stroke-linejoin="round"/>
<path d="M20.7739 29.1435C19.7709 30.2635 19.7499 31.9535 20.6699 33.1435C22.4569 35.4633 24.5361 37.5425 26.8559 39.3295C28.0459 40.2495 29.7359 40.2285 30.8559 39.2255C33.8835 36.5173 36.7284 33.6116 39.3719 30.5275C39.6388 30.2207 39.8031 29.8382 39.8419 29.4335C40.0059 27.6375 40.3449 22.4635 38.9399 21.0595C37.5349 19.6555 32.3619 19.9935 30.5659 20.1585C30.1611 20.1973 29.7786 20.3616 29.4719 20.6285C26.3878 23.2717 23.4821 26.1163 20.7739 29.1435Z" stroke="#555555" stroke-width="1.7" stroke-linecap="round" stroke-linejoin="round"/>
<path d="M31.7878 30.3673C31.8098 29.9653 31.9218 29.2323 31.3118 28.6743M31.3118 28.6743C31.0791 28.4721 30.808 28.3187 30.5148 28.2233C29.2578 27.7803 27.7148 29.2623 28.8068 30.6193C29.3938 31.3493 29.8468 31.5733 29.8028 32.4013C29.7728 32.9833 29.2008 33.5923 28.4468 33.8243C27.7918 34.0263 27.0688 33.7593 26.6118 33.2483C26.0528 32.6243 26.1098 32.0363 26.1048 31.7803M31.3118 28.6743L31.9998 27.9863M26.6598 33.3263L26.0068 33.9793" stroke="#555555" stroke-width="1.7" stroke-linecap="round" stroke-linejoin="round"/>
</svg>
