<svg width="60" height="60" viewBox="0 0 60 60" fill="none" xmlns="http://www.w3.org/2000/svg">
<rect width="60" height="60" rx="30" fill="#EBFFF8"/>
<g clip-path="url(#clip0_15707_9915)">
<path d="M22 18.8496H25C26.7397 18.8496 28.1504 20.2603 28.1504 22V25C28.1504 26.7397 26.7397 28.1504 25 28.1504H22C20.2603 28.1504 18.8496 26.7397 18.8496 25V22C18.8496 20.2603 20.2603 18.8496 22 18.8496Z" stroke="#00875A" stroke-width="1.7"/>
<path d="M35 18.8496H38C39.7397 18.8496 41.1504 20.2603 41.1504 22V25C41.1504 26.7397 39.7397 28.1504 38 28.1504H35C33.2603 28.1504 31.8496 26.7397 31.8496 25V22C31.8496 20.2603 33.2603 18.8496 35 18.8496Z" stroke="#00875A" stroke-width="1.7"/>
<path d="M22 31.8496H25C26.7397 31.8496 28.1504 33.2603 28.1504 35V38C28.1504 39.7397 26.7397 41.1504 25 41.1504H22C20.2603 41.1504 18.8496 39.7397 18.8496 38V35C18.8496 33.2603 20.2603 31.8496 22 31.8496Z" stroke="#00875A" stroke-width="1.7"/>
<path d="M35 31.8496H38C39.7397 31.8496 41.1504 33.2603 41.1504 35V38C41.1504 39.7397 39.7397 41.1504 38 41.1504H35C33.2603 41.1504 31.8496 39.7397 31.8496 38V35C31.8496 33.2603 33.2603 31.8496 35 31.8496Z" stroke="#00875A" stroke-width="1.7"/>
</g>
<defs>
<clipPath id="clip0_15707_9915">
<rect width="24" height="24" fill="white" transform="translate(18 18)"/>
</clipPath>
</defs>
</svg>
