<svg width="60" height="60" viewBox="0 0 60 60" fill="none" xmlns="http://www.w3.org/2000/svg">
<path d="M28 29C30.2091 29 32 27.2091 32 25C32 22.7909 30.2091 21 28 21C25.7909 21 24 22.7909 24 25C24 27.2091 25.7909 29 28 29Z" stroke="#555555" stroke-width="1.7" stroke-linecap="round" stroke-linejoin="round"/>
<path d="M28.3 33H25C23.9391 33 22.9217 33.4214 22.1716 34.1716C21.4214 34.9217 21 35.9391 21 37V39" stroke="#555555" stroke-width="1.7" stroke-linecap="round" stroke-linejoin="round"/>
<path d="M35 38C36.6569 38 38 36.6569 38 35C38 33.3431 36.6569 32 35 32C33.3431 32 32 33.3431 32 35C32 36.6569 33.3431 38 35 38Z" stroke="#555555" stroke-width="1.7" stroke-linecap="round" stroke-linejoin="round"/>
<path d="M39.0001 38.9996L37.1001 37.0996" stroke="#555555" stroke-width="2" stroke-linecap="round" stroke-linejoin="round"/>
</svg>
